<svg width="22" height="23" viewBox="0 0 22 23" fill="none" xmlns="http://www.w3.org/2000/svg">
<path d="M1 0C0.44772 0 0 0.44772 0 1C0 1.55228 0.44772 2 1 2V0ZM3.22222 1L4.2026 0.80288C4.10872 0.33593 3.69852 0 3.22222 0V1ZM2.68629 3.40762C2.79515 3.94907 3.32233 4.29975 3.86378 4.19089C4.40523 4.08202 4.75591 3.55484 4.64705 3.01339L2.68629 3.40762ZM5.44444 11.0525C4.89216 11.0525 4.44444 11.5002 4.44444 12.0525C4.44444 12.6048 4.89216 13.0525 5.44444 13.0525V11.0525ZM16.5556 12.0525V13.0525C16.9336 13.0525 17.2793 12.8394 17.449 12.5016L16.5556 12.0525ZM21 3.21051L21.8935 3.65961C22.0493 3.34962 22.0333 2.98101 21.8512 2.68568C21.6691 2.39035 21.347 2.21051 21 2.21051V3.21051ZM3.66667 2.21051C3.11438 2.21051 2.66667 2.65822 2.66667 3.21051C2.66667 3.76279 3.11438 4.21051 3.66667 4.21051V2.21051ZM4.46406 12.2496C4.57293 12.7911 5.10011 13.1418 5.64156 13.0329C6.18301 12.924 6.53369 12.3969 6.42482 11.8554L4.46406 12.2496ZM4.64705 3.01339C4.53818 2.47194 4.011 2.12126 3.46955 2.23012C2.9281 2.33899 2.57742 2.86617 2.68629 3.40762L4.64705 3.01339ZM6.14968 12.7615C6.54123 12.372 6.54291 11.7388 6.15342 11.3473C5.76393 10.9557 5.13076 10.9541 4.73921 11.3436L6.14968 12.7615ZM2.89667 14.5869L2.19143 13.8779L2.89667 14.5869ZM16.5556 17.4735C17.1078 17.4735 17.5556 17.0258 17.5556 16.4735C17.5556 15.9213 17.1078 15.4735 16.5556 15.4735V17.4735ZM16.5556 16.4735H15.5556C15.5556 16.7397 15.6616 16.9948 15.8503 17.1825L16.5556 16.4735ZM18.7778 18.684L18.0725 19.393C18.2599 19.5794 18.5135 19.684 18.7778 19.684V18.684ZM7.66667 18.684L6.80179 18.1821C6.71328 18.3345 6.66667 18.5077 6.66667 18.684H7.66667ZM7.66667 20.8945H6.66667C6.66667 21.0709 6.71328 21.244 6.80179 21.3965L7.66667 20.8945ZM1 2H3.22222V0H1V2ZM2.24184 1.19712L2.68629 3.40762L4.64705 3.01339L4.2026 0.80288L2.24184 1.19712ZM5.44444 13.0525H16.5556V11.0525H5.44444V13.0525ZM17.449 12.5016L21.8935 3.65961L20.1065 2.7614L15.6621 11.6034L17.449 12.5016ZM21 2.21051H3.66667V4.21051H21V2.21051ZM6.42482 11.8554L4.64705 3.01339L2.68629 3.40762L4.46406 12.2496L6.42482 11.8554ZM4.73921 11.3436L2.19143 13.8779L3.6019 15.2958L6.14968 12.7615L4.73921 11.3436ZM2.19143 13.8779C0.85112 15.2111 1.81103 17.4735 3.68222 17.4735V15.4735C3.64208 15.4735 3.62553 15.4635 3.61734 15.4578C3.60473 15.4489 3.58938 15.4322 3.57888 15.407C3.56837 15.3817 3.56775 15.3602 3.57003 15.3471C3.57136 15.3395 3.57483 15.3228 3.6019 15.2958L2.19143 13.8779ZM3.68222 17.4735H16.5556V15.4735H3.68222V17.4735ZM17.5556 16.4735C17.5556 15.81 18.0978 15.263 18.7778 15.263V13.263C17.0032 13.263 15.5556 14.6954 15.5556 16.4735H17.5556ZM18.7778 15.263C19.4578 15.263 20 15.81 20 16.4735H22C22 14.6954 20.5524 13.263 18.7778 13.263V15.263ZM20 16.4735C20 17.1371 19.4578 17.684 18.7778 17.684V19.684C20.5524 19.684 22 18.2516 22 16.4735H20ZM19.483 17.9751L17.2608 15.7646L15.8503 17.1825L18.0725 19.393L19.483 17.9751ZM8.53154 19.186C8.80675 18.7119 9.3711 18.4771 9.9088 18.6204L10.4239 16.6878C9.0185 16.3133 7.53237 16.9233 6.80179 18.1821L8.53154 19.186ZM9.9088 18.6204C10.4456 18.7635 10.8134 19.2451 10.8134 19.7893H12.8134C12.8134 18.3325 11.8301 17.0627 10.4239 16.6878L9.9088 18.6204ZM10.8134 19.7893C10.8134 20.3335 10.4456 20.8151 9.9088 20.9582L10.4239 22.8907C11.8301 22.5159 12.8134 21.2461 12.8134 19.7893H10.8134ZM9.9088 20.9582C9.3711 21.1015 8.80675 20.8667 8.53154 20.3926L6.80179 21.3965C7.53237 22.6553 9.0185 23.2653 10.4239 22.8907L9.9088 20.9582ZM8.66667 20.8945V18.684H6.66667V20.8945H8.66667Z" fill="white"/>
</svg>
