<svg width="30" height="30" viewBox="0 0 30 30" fill="none" xmlns="http://www.w3.org/2000/svg">
<path d="M23.1465 22.359C23.1465 22.746 22.8383 23.133 22.3746 23.133C21.9887 23.133 21.6028 22.824 21.6028 22.359V22.281V22.203C21.1391 18.798 18.2072 16.323 14.7369 16.323H14.6591H14.5813C11.108 16.323 8.25395 18.798 7.71545 22.125C7.71545 22.203 7.71545 22.281 7.71545 22.356V22.434C7.71545 22.899 7.32953 23.208 6.9436 23.208C6.55768 23.208 6.17175 22.821 6.17175 22.434V22.356C6.17175 22.278 6.17175 22.2 6.17175 22.2C6.55768 19.104 8.63988 16.551 11.4939 15.4681C9.87245 14.3851 8.79246 12.5281 8.79246 10.4401C8.79246 7.11305 11.3384 4.48206 14.6561 4.48206C17.9739 4.48206 20.5198 7.19105 20.5198 10.4401C20.5198 12.6061 19.4398 14.4631 17.8183 15.4681C20.5946 16.551 22.6798 19.026 23.1405 22.122C23.1465 22.128 23.1465 22.206 23.1465 22.359ZM19.1347 10.3681C19.1347 7.89305 17.1272 5.88006 14.6591 5.88006C12.191 5.88006 10.1836 7.89305 10.1836 10.3681C10.1836 12.8431 12.191 14.8561 14.6591 14.8561C17.1272 14.8561 19.1347 12.8431 19.1347 10.3681Z" fill="white"/>
<path d="M14.6592 29.4C6.55774 29.4 0 22.824 0 14.7C0 6.576 6.55774 0 14.6592 0C22.7606 0 29.3184 6.576 29.3184 14.7C29.3184 22.824 22.7606 29.4 14.6592 29.4ZM14.6592 1.314C7.32959 1.314 1.31035 7.272 1.31035 14.7C1.31035 22.128 7.25181 28.086 14.6592 28.086C22.0666 28.086 28.008 22.128 28.008 14.7C28.008 7.272 21.9888 1.314 14.6592 1.314Z" fill="white"/>
</svg>
