<svg width="28" height="28" viewBox="0 0 28 28" fill="none" xmlns="http://www.w3.org/2000/svg">
<path d="M23.5189 15.3125H8.31276C7.58792 15.3125 7.00027 14.7249 7.00027 14C7.00027 13.2752 7.58792 12.6875 8.31276 12.6875H23.5189L21.8219 10.9906C21.3093 10.478 21.3093 9.647 21.8219 9.13443C22.3344 8.62186 23.1654 8.62186 23.678 9.13443L27.6153 13.0718C27.646 13.1025 27.6751 13.1347 27.7026 13.1683C27.7145 13.1829 27.725 13.1984 27.7362 13.2134C27.7507 13.2326 27.7656 13.2515 27.7789 13.2715C27.7912 13.2898 27.8018 13.3088 27.813 13.3275C27.8237 13.3455 27.835 13.3631 27.8449 13.3817C27.8552 13.4009 27.8639 13.4207 27.8732 13.4403C27.8823 13.4594 27.8918 13.4783 27.9 13.4979C27.9078 13.5171 27.9143 13.5366 27.9212 13.556C27.9288 13.577 27.9369 13.5978 27.9434 13.6192C27.9492 13.6386 27.9535 13.6583 27.9584 13.678C27.9639 13.6998 27.97 13.7215 27.9744 13.7437C27.9789 13.7664 27.9816 13.7893 27.9848 13.8121C27.9876 13.8317 27.9914 13.8509 27.9933 13.8707C27.9975 13.913 27.9997 13.9556 27.9998 13.9982C27.9998 13.9988 27.9999 13.9995 27.9999 14.0001C27.9999 14.0007 27.9998 14.0014 27.9998 14.002C27.9997 14.0446 27.9975 14.0872 27.9933 14.1296C27.9914 14.1491 27.9877 14.1681 27.985 14.1874C27.9817 14.2105 27.979 14.2336 27.9744 14.2566C27.97 14.2786 27.964 14.3 27.9585 14.3216C27.9535 14.3414 27.9491 14.3615 27.9432 14.3812C27.9368 14.4022 27.9288 14.4226 27.9215 14.4433C27.9144 14.4631 27.9079 14.4829 27.8999 14.5023C27.8919 14.5216 27.8825 14.5401 27.8736 14.5589C27.8642 14.5789 27.8552 14.5991 27.8447 14.6188C27.8351 14.6367 27.8242 14.6538 27.8138 14.6712C27.8023 14.6906 27.7914 14.7101 27.7788 14.7289C27.766 14.748 27.7517 14.766 27.738 14.7844C27.7261 14.8003 27.7151 14.8166 27.7024 14.832C27.6762 14.8639 27.6485 14.8944 27.6195 14.9237C27.6181 14.9251 27.617 14.9267 27.6156 14.9281L23.6781 18.8657C23.4217 19.122 23.0859 19.2502 22.75 19.2502C22.4142 19.2501 22.0782 19.122 21.822 18.8658C21.3094 18.3532 21.3094 17.5222 21.8219 17.0096L23.5189 15.3125Z" fill="white"/>
<path d="M1.31249 2.1875H17.9374C18.6622 2.1875 19.2499 2.77515 19.2499 3.49999V8.74996C19.2499 9.4748 18.6622 10.0625 17.9374 10.0625C17.2125 10.0625 16.6249 9.4748 16.6249 8.74996V4.81248H2.62498V23.1875H16.6249V19.2499C16.6249 18.525 17.2125 17.9374 17.9374 17.9374C18.6622 17.9374 19.2499 18.525 19.2499 19.2499V24.4999C19.2499 25.2248 18.6622 25.8124 17.9374 25.8124H1.31249C0.587643 25.8124 -3.8147e-06 25.2248 -3.8147e-06 24.4999V3.49999C-3.8147e-06 2.77515 0.587643 2.1875 1.31249 2.1875Z" fill="white"/>
</svg>
